<?xml version="1.0" standalone="no"?>
<!DOCTYPE svg PUBLIC "-//W3C//DTD SVG 20010904//EN"
 "http://www.w3.org/TR/2001/REC-SVG-20010904/DTD/svg10.dtd">
<svg version="1.0" xmlns="http://www.w3.org/2000/svg"
 width="299.000000pt" height="299.000000pt" viewBox="0 0 299.000000 299.000000"
 preserveAspectRatio="xMidYMid meet">
<metadata>
Created by potrace 1.11, written by Peter Selinger 2001-2013
</metadata>
<g transform="translate(0.000000,299.000000) scale(0.100000,-0.100000)"
fill="#000000" stroke="none">
<path d="M5 2508 c5 -65 15 -163 26 -263 5 -49 12 -117 15 -150 2 -33 6 -73 9
-90 2 -16 7 -64 11 -105 4 -41 8 -81 9 -90 2 -8 4 -25 4 -37 1 -22 5 -23 80
-23 44 0 82 3 85 8 2 4 7 36 10 72 4 36 8 81 11 100 15 131 17 151 30 280 8
71 14 90 16 44 2 -35 5 -74 12 -134 3 -25 8 -74 12 -110 3 -36 8 -76 10 -90 3
-14 7 -54 10 -89 3 -36 8 -68 11 -73 3 -4 39 -8 80 -8 74 0 74 0 75 28 0 15 2
35 4 45 2 9 7 50 10 90 4 39 9 83 10 97 1 14 5 52 9 85 7 66 14 144 21 216 2
25 7 73 10 105 4 32 8 76 10 97 l3 37 -54 0 c-54 0 -54 0 -56 -32 0 -18 -2
-44 -3 -58 -2 -14 -6 -59 -9 -100 -4 -41 -9 -89 -11 -107 -3 -17 -7 -67 -11
-110 -9 -124 -21 -205 -23 -163 -2 19 -4 42 -5 50 -2 8 -6 51 -10 95 -4 44 -9
96 -11 115 -11 94 -28 263 -29 295 -1 6 -31 11 -68 13 -78 3 -73 12 -83 -128
-7 -82 -9 -109 -20 -202 -3 -24 -8 -81 -11 -128 -7 -94 -23 -142 -24 -75 -1
22 -3 48 -5 58 -2 9 -6 50 -9 90 -4 39 -9 92 -11 117 -15 150 -18 178 -20 210
-1 19 -3 41 -4 48 -1 8 -20 12 -60 12 l-59 0 3 -42z"/>
<path d="M662 2173 c0 -208 1 -388 4 -400 4 -22 6 -22 172 -20 l167 2 0 53 c1
28 -2 53 -5 53 -3 1 -50 2 -105 3 l-100 2 -3 122 -3 122 86 0 85 0 0 54 c0 34
-5 55 -12 58 -7 2 -46 4 -85 3 l-73 -2 0 107 0 106 105 0 c62 -1 106 3 108 9
2 6 3 30 2 55 l0 45 -171 3 -171 2 -1 -377z"/>
<path d="M1076 2157 c1 -215 2 -396 3 -400 1 -5 58 -7 129 -5 158 4 195 19
231 91 20 41 24 63 23 137 0 100 -19 153 -62 178 l-27 16 28 24 c35 29 51 83
48 166 -3 82 -21 125 -66 156 -34 23 -46 25 -172 27 l-136 3 1 -393z m231 260
c18 -17 24 -109 10 -150 -7 -20 -18 -30 -41 -35 -72 -15 -71 -17 -74 87 -1 52
-1 100 2 107 6 17 84 10 103 -9z m11 -332 c15 -19 19 -40 19 -100 0 -98 -13
-117 -82 -119 l-50 -1 -3 123 -3 122 50 0 c41 0 53 -4 69 -25z"/>
<path d="M2735 2542 c-74 -26 -117 -97 -116 -192 0 -88 26 -137 126 -237 47
-47 93 -99 101 -116 21 -40 20 -114 -2 -138 -17 -19 -59 -25 -81 -11 -18 11
-33 57 -27 86 6 33 -16 43 -80 38 l-45 -4 5 -55 c12 -129 68 -185 185 -185
124 0 196 82 187 213 -7 92 -35 144 -129 236 -90 88 -119 137 -114 191 9 98
125 82 125 -17 l0 -38 58 2 57 2 -1 52 c-3 111 -59 171 -166 177 -35 2 -72 0
-83 -4z"/>
<path d="M1730 2140 c0 -220 3 -400 8 -401 29 -4 86 -3 94 2 7 4 11 107 11
290 l0 284 17 -60 c10 -33 44 -161 75 -285 32 -124 59 -227 61 -229 7 -9 124
-6 127 4 2 5 3 186 3 400 l-1 390 -55 0 -55 0 0 -228 c0 -125 -2 -227 -6 -227
-4 0 -38 127 -55 205 -1 6 -16 62 -33 126 -17 64 -31 119 -31 123 0 3 -36 6
-80 6 l-80 0 0 -400z"/>
<path d="M2222 2138 l3 -402 158 0 c88 -1 163 2 168 5 6 3 11 28 12 55 l2 49
-110 5 -110 5 0 120 0 120 86 3 87 3 0 54 0 55 -42 1 c-22 0 -61 1 -86 2 l-44
2 -1 102 c-1 118 -11 109 120 108 89 -1 90 -1 95 24 3 15 4 41 2 59 l-4 32
-169 0 -169 0 2 -402z"/>
<path d="M117 1660 c-37 -4 -73 -12 -79 -18 -21 -21 -25 -107 -26 -611 0 -537
1 -555 46 -578 19 -9 2787 -15 2840 -6 39 6 61 36 67 89 2 22 5 270 6 553 l1
513 -33 34 -33 35 -1361 -2 c-748 -2 -1391 -5 -1428 -9z m2745 -167 c3 -70 2
-657 -1 -870 l-1 -83 -1370 0 -1369 0 0 515 0 515 1369 0 1368 0 4 -77z"/>
<path d="M220 1440 l-55 -5 -1 -410 c0 -226 3 -418 8 -427 7 -15 47 -17 463
-18 451 -1 455 0 456 20 1 11 3 25 4 30 1 6 3 13 4 18 1 5 630 9 664 3 4 0 7
-17 7 -36 l0 -35 525 0 525 0 0 23 c2 80 -1 649 -4 728 -1 52 -6 101 -11 108
-6 10 -84 12 -379 8 -204 -3 -435 -6 -513 -6 l-143 -1 0 -50 c0 -33 -4 -50
-12 -51 -7 -1 -156 -2 -331 -3 -355 -1 -337 -5 -337 67 0 31 -3 35 -32 40 -43
7 -766 5 -838 -3z m1543 -179 c4 0 7 -19 7 -41 0 -34 -4 -42 -26 -50 -14 -6
-153 -10 -330 -9 -338 1 -324 -2 -319 69 2 19 3 35 4 35 15 1 658 -3 664 -4z
m-1059 -72 c3 -2 6 -35 7 -72 1 -37 7 -71 13 -75 6 -5 42 -9 81 -11 38 -1 71
-3 72 -5 1 -1 3 -33 4 -70 2 -86 -8 -96 -102 -96 l-68 0 -3 -77 -3 -78 -77 -3
-77 -3 -6 33 c-11 68 -14 84 -14 106 -1 21 -5 22 -71 22 -65 0 -71 2 -80 24
-8 23 -8 132 1 140 2 2 36 7 74 11 39 3 73 9 77 13 4 4 8 34 9 67 1 33 4 65 6
70 4 11 147 14 157 4z m1059 -88 c6 -1 4 -91 -2 -97 -4 -3 -645 -2 -654 2 -7
2 -13 22 -14 45 -2 33 1 41 20 48 17 7 614 9 650 2z m807 -110 l35 -7 0 -149
0 -150 -338 -1 c-262 -1 -341 1 -351 11 -9 9 -12 46 -11 127 2 161 3 166 23
171 30 7 606 6 642 -2z m-807 -60 c10 -2 8 -193 -3 -211 -8 -13 -51 -15 -282
-15 -150 0 -299 2 -331 3 l-57 4 2 106 c2 59 6 109 10 112 5 4 635 5 661 1z"/>
<path d="M2003 938 c-38 -27 -53 -57 -53 -104 0 -95 107 -156 183 -105 42 27
60 59 60 105 0 52 -16 82 -56 106 -43 26 -95 25 -134 -2z"/>
<path d="M2383 940 c-63 -38 -80 -112 -40 -171 76 -112 242 -52 224 82 -12 90
-107 136 -184 89z"/>
<path d="M1150 873 c-8 -3 -18 -11 -22 -17 -11 -15 0 -79 15 -88 6 -4 54 -8
105 -8 102 0 132 15 132 64 0 42 -34 56 -130 55 -47 0 -92 -3 -100 -6z"/>
<path d="M1486 858 c-21 -30 -20 -54 4 -78 17 -17 33 -20 103 -20 99 0 131 13
135 56 5 54 -16 64 -128 64 -91 0 -100 -2 -114 -22z"/>
</g>
</svg>
